<svg width="89" height="86" viewBox="0 0 89 86" fill="none" xmlns="http://www.w3.org/2000/svg">
<path d="M52.3014 10.4072C52.1484 10.5665 52.1206 10.8158 52.211 11.1412C52.2527 11.3005 52.2597 11.3005 52.4335 11.0373C52.663 10.6842 52.7186 10.5319 52.6699 10.3795C52.6143 10.2064 52.4822 10.2134 52.3014 10.4072Z" fill="#7D7D7D" fill-opacity="0.47"/>
<path d="M51.9051 12.2976C51.6409 13.0593 51.0985 14.0356 50.7161 14.4303C50.4936 14.6657 50.4241 14.7973 50.3893 15.0604C50.3615 15.2473 50.292 15.4481 50.2363 15.5105C50.1807 15.5728 49.9652 15.9398 49.7635 16.3345C49.3602 17.0892 49.2977 17.11 49.2977 16.4868C49.2977 16.1683 49.6662 14.4995 49.8887 13.8417C49.9443 13.6617 49.993 13.4747 49.993 13.4262C49.993 13.3709 50.0695 13.17 50.1668 12.9831C50.431 12.443 50.3684 12.0829 50.0695 12.4084C49.9582 12.5261 49.9234 12.6507 49.9234 12.9554C49.9234 13.17 49.8609 13.544 49.7913 13.7863C49.7148 14.0287 49.6384 14.3333 49.6105 14.4649C49.548 14.7765 49.1099 15.4481 48.943 15.4897C48.8527 15.5174 48.797 15.6351 48.7414 15.919C48.6371 16.4522 48.3381 16.9992 48.2199 16.8815C48.1991 16.8607 48.2477 16.5422 48.3173 16.1752C48.4702 15.4343 48.6302 15.095 48.7623 15.2266C48.8248 15.2889 48.8666 15.1504 48.9291 14.6657C49.0334 13.8763 49.0404 13.3085 48.957 13.3985C48.8457 13.5163 48.6023 14.3195 48.6023 14.5688C48.6023 14.7003 48.5745 14.8319 48.5328 14.8527C48.498 14.8734 48.4633 14.9634 48.4633 15.0535C48.4633 15.1366 48.4285 15.2404 48.3937 15.275C48.352 15.3166 48.2825 15.5659 48.2269 15.829C48.1156 16.3899 47.9905 16.6876 47.8584 16.6876C47.8097 16.6876 47.768 16.7153 47.768 16.7568C47.768 16.7915 47.7332 16.8261 47.6915 16.8261C47.6359 16.8261 47.622 16.7291 47.6498 16.5353C47.6845 16.2721 47.6706 16.2237 47.4481 16.009C47.2534 15.8221 47.2117 15.8013 47.2117 15.9121C47.2117 15.9813 47.17 16.099 47.1144 16.1752C47.0379 16.2721 46.9962 16.286 46.9266 16.2237C46.8849 16.1821 46.8084 16.1614 46.7598 16.1752C46.6624 16.2167 46.5998 16.0852 46.5164 15.6351C46.4816 15.4551 46.3843 15.2404 46.3078 15.1642C46.2313 15.0881 46.1687 14.9634 46.1687 14.8942C46.1687 14.818 46.134 14.6726 46.0992 14.5688C46.0297 14.3887 46.0227 14.3887 45.9323 14.5134C45.8767 14.5965 45.842 14.8734 45.842 15.2473C45.835 15.5728 45.8072 15.8982 45.7724 15.9605C45.7098 16.0644 45.6959 16.0713 45.5916 15.9675C45.5291 15.9052 45.4595 15.739 45.4387 15.5936C45.4178 15.4551 45.3691 15.185 45.3344 15.005C45.2927 14.818 45.2648 14.4372 45.2648 14.1602V13.6547L45.091 13.7309C44.9659 13.7932 44.9172 13.8694 44.9172 14.0287C44.9172 14.2433 45.1675 15.0673 45.2787 15.2058C45.3066 15.2473 45.3205 15.3304 45.2996 15.3789C45.2787 15.4343 45.237 15.8082 45.2023 16.2098C45.1675 16.6322 45.091 17.0338 45.0284 17.1446C44.8894 17.4077 44.8894 17.2831 45.0284 16.3691C45.1188 15.7874 45.1258 15.6074 45.0632 15.4551C44.9937 15.3097 44.9659 15.2958 44.9102 15.3789C44.8546 15.4551 44.8268 15.4551 44.799 15.3858C44.7642 15.2958 44.5695 15.2681 44.5695 15.3581C44.5695 15.3928 44.507 15.4828 44.4305 15.5659L44.2845 15.7182L44.5139 15.9121C44.7225 16.106 44.7295 16.1198 44.6391 16.3414C44.5556 16.5422 44.5348 16.5491 44.4652 16.4522C44.3887 16.3552 44.354 16.3691 44.1315 16.6114C43.9994 16.7568 43.8325 16.9161 43.756 16.9507C43.6726 17.0061 43.6309 17.1031 43.6309 17.2831C43.6309 17.4285 43.5891 17.5531 43.5474 17.567C43.4918 17.5878 43.457 17.5393 43.457 17.4562C43.457 17.3731 43.4292 17.3108 43.3875 17.3108C43.3527 17.3108 43.318 17.2554 43.318 17.1861C43.318 17.1169 43.2832 17.0269 43.2484 16.9923C43.1998 16.9438 43.2067 16.7638 43.2762 16.4383C43.4292 15.6836 43.4709 15.3235 43.3875 15.4412C43.3527 15.4966 43.318 15.6074 43.318 15.6836C43.311 15.9121 43.0468 16.4245 42.9564 16.3968C42.9077 16.376 42.8521 16.2791 42.8312 16.1683C42.7965 15.9952 42.7756 16.0229 42.5601 16.4729C42.428 16.743 42.2959 16.9646 42.2611 16.9646C42.2333 16.9646 42.2055 17.0269 42.2055 17.1031C42.2055 17.2485 42.0386 17.2969 41.9621 17.1723C41.9343 17.1308 41.9134 16.8953 41.9134 16.6461C41.9134 16.196 41.8787 16.1129 41.823 16.4106C41.7813 16.6391 41.7466 16.6461 41.5658 16.5076C41.4684 16.4245 41.4128 16.3206 41.4267 16.2237C41.4406 16.1267 41.392 16.0367 41.2807 15.9605C41.1834 15.8982 41.086 15.7805 41.0652 15.6974C41.0234 15.5312 40.6827 15.462 40.5923 15.6005C40.5298 15.7043 40.3281 15.5312 40.3281 15.3651C40.3281 15.2889 40.3003 15.2335 40.2655 15.2335C40.2377 15.2335 40.1891 15.5174 40.1682 15.8636C40.1473 16.2167 40.0917 16.5353 40.05 16.5768C39.9248 16.7014 39.7371 16.5283 39.7162 16.2444C39.7023 16.106 39.6745 15.9952 39.6537 15.9952C39.6259 15.9952 39.5216 16.0921 39.4173 16.2098C39.313 16.3275 39.1948 16.4037 39.153 16.3829C39.1113 16.3552 39.0279 16.1475 38.9653 15.919C38.8262 15.4412 38.6872 15.282 38.7567 15.6905C38.7845 15.8359 38.8402 16.0436 38.8749 16.1475C38.9305 16.2721 38.9236 16.3691 38.8749 16.4729C38.7498 16.6945 38.6177 16.5768 38.5273 16.1614C38.4786 15.9605 38.423 15.7874 38.3952 15.7874C38.3673 15.7874 38.3465 15.9259 38.3465 16.099C38.3395 16.4937 38.2283 16.6253 38.0405 16.4522C37.9362 16.3552 37.9084 16.2444 37.9154 15.9259C37.9223 15.6766 37.8945 15.4828 37.8459 15.4343C37.7694 15.3651 37.7555 15.4274 37.7555 15.7597C37.7555 15.9882 37.7207 16.2098 37.672 16.2583C37.5677 16.3622 37.2687 16.3691 37.2687 16.2652C37.2687 16.2237 37.1784 16.3552 37.0741 16.556C36.8516 16.9853 36.7055 17.0546 36.6012 16.7776L36.5248 16.5837V16.7707C36.5178 16.9992 36.3301 17.3108 36.198 17.3108C36.1145 17.3108 35.8086 16.7222 35.8086 16.556C35.8086 16.5214 35.7808 16.4729 35.753 16.4522C35.7252 16.4383 35.7112 16.5283 35.7252 16.6599C35.7738 17.0754 35.3984 17.4493 35.2941 17.0823C35.2662 16.9784 35.2315 16.9576 35.1967 17.013C35.1689 17.0546 35.0577 17.1238 34.9534 17.1654C34.8073 17.2208 34.7656 17.2208 34.7656 17.1446C34.7656 17.0961 34.703 16.9992 34.6266 16.9299C34.5501 16.8607 34.4875 16.7153 34.4875 16.6045C34.4875 16.5006 34.4666 16.4106 34.4388 16.4106C34.4041 16.4106 34.3971 16.5976 34.4041 16.8261C34.4319 17.2138 34.418 17.2415 34.2789 17.2415C34.1677 17.2415 34.0981 17.1585 33.9938 16.9299C33.9173 16.7568 33.7922 16.5768 33.7227 16.5353C33.6184 16.466 33.6045 16.3968 33.6323 16.0852C33.6879 15.5728 33.5419 15.6005 33.4723 16.1129C33.4376 16.4037 33.368 16.5837 33.2151 16.7707C32.9717 17.0684 32.8605 17.0961 32.631 16.8884L32.478 16.7361L32.4016 16.923C32.3668 17.0269 32.332 17.1446 32.332 17.1792C32.332 17.2138 32.2277 17.2415 32.0956 17.2415C31.8175 17.2415 31.7758 17.3177 31.7758 17.8024C31.7758 18.1071 31.7619 18.1417 31.6228 18.1417C31.2195 18.1486 31.1361 18.391 31.1152 19.5958C31.0944 21.0361 31.0109 21.2161 30.712 20.4752L30.5312 20.0459L30.5242 20.3298C30.5242 20.6068 30.3712 20.8422 30.1905 20.8422C30.0653 20.8422 30.0931 20.7176 30.2322 20.6414C30.3434 20.5791 30.3434 20.5652 30.2322 20.4544C30.1209 20.3367 30.107 20.3436 30.0445 20.5098C30.0027 20.6137 29.8845 20.7176 29.7524 20.766C29.4534 20.8699 29.3283 20.7522 29.2657 20.309L29.224 19.9767L29.2101 20.406C29.2031 20.7937 29.1892 20.8422 29.0641 20.8422C28.9598 20.8422 28.8833 20.7522 28.7859 20.5306C28.7164 20.3644 28.5912 20.1844 28.5148 20.1428C28.4035 20.0667 28.3896 20.0043 28.4174 19.6858C28.473 19.1804 28.327 19.2081 28.2645 19.7135C28.2297 20.0043 28.1602 20.1844 28.0072 20.3713C27.7708 20.676 27.6178 20.6968 27.4092 20.4752L27.2562 20.3159L27.4648 20.1151C27.583 20.0043 27.6734 19.8866 27.6734 19.852C27.6734 19.8174 27.8195 19.5681 27.9933 19.305C28.1671 19.0419 28.2992 18.8134 28.2784 18.7926C28.2297 18.7441 27.9516 18.8895 27.9516 18.9657C27.9516 19.0003 27.736 19.2911 27.4648 19.6166C27.2006 19.942 26.9642 20.2882 26.9364 20.3921C26.9155 20.4891 26.8112 20.6552 26.707 20.766C26.6027 20.8768 26.3523 21.2923 26.1507 21.7008C25.9421 22.1024 25.7335 22.4694 25.6779 22.511C25.6292 22.5525 25.5875 22.6425 25.5875 22.7048C25.5875 22.7672 25.5597 22.8502 25.5319 22.8918C25.4971 22.9264 25.358 23.2172 25.2259 23.5427C24.9478 24.2005 24.7044 25.2114 24.4472 26.7625C24.1273 28.729 24.0926 29.1652 24.0926 31.4364C24.0995 33.6037 24.0995 33.6245 24.322 34.7254C24.475 35.494 24.6071 36.5396 24.7531 38.1184C24.8713 39.3717 24.9965 40.6388 25.0382 40.9227C25.1286 41.5597 25.4832 42.6884 25.664 42.9446C26.102 43.5609 26.4288 44.5095 26.4566 45.2712C26.4636 45.5066 26.4914 45.7282 26.5192 45.749C26.5401 45.7697 26.5609 45.9844 26.5609 46.2129C26.5679 47.3277 26.7695 48.3179 27.0755 48.6779C27.1241 48.7333 27.2632 49.0311 27.3884 49.3358C27.7499 50.229 28.1532 50.9076 28.487 51.2122C28.7651 51.4615 28.8068 51.5377 28.8346 51.8424C28.8694 52.1678 28.8624 52.1886 28.626 52.3686C28.327 52.5971 28.2088 52.604 27.9307 52.4032C27.6526 52.2093 27.5691 52.1124 27.3884 51.7593C27.3049 51.6069 27.1241 51.3577 26.9781 51.2053C26.401 50.596 26.0742 50.2151 26.0742 50.1459C26.0742 50.1044 25.9838 50.0005 25.8656 49.9105C25.7544 49.8274 25.657 49.7235 25.657 49.675C25.657 49.6266 25.5805 49.5296 25.4902 49.4604C25.3998 49.3911 25.1981 49.1488 25.0452 48.9203C24.3916 47.9647 23.7241 47.4454 23.2443 47.5216C22.4516 47.6531 17.2716 49.952 16.8266 50.3675C16.5206 50.6583 16.3816 50.7275 15.9922 50.7899C15.429 50.8729 13.9062 51.4061 13.9062 51.5169C13.9062 51.5515 13.7255 51.6277 13.5099 51.69C13.2874 51.7523 13.051 51.8562 12.9815 51.9185C12.8216 52.0639 11.9872 52.1193 11.6673 52.0085C11.3684 51.9047 11.2432 52.0293 11.2223 52.4794C11.2154 52.6663 11.1528 52.9018 11.0902 52.9987C10.9581 53.1995 10.972 53.3657 11.1737 53.9404C11.2502 54.1482 11.4448 54.7367 11.6117 55.2353C11.7786 55.7407 11.9385 56.1562 11.9663 56.1562C12.0011 56.1562 12.0706 56.2601 12.1262 56.3778C12.2305 56.6132 12.467 56.9179 12.5434 56.9179C12.5643 56.9179 12.5852 56.7586 12.5852 56.5647C12.5852 56.1701 12.6825 56.1354 12.8633 56.4747C12.9398 56.6063 13.0023 57.0217 13.058 57.7142C13.1136 58.4966 13.197 58.9882 13.3917 59.7222C13.5308 60.2554 13.6559 60.7747 13.6768 60.8786C13.6977 60.9755 13.7811 61.1279 13.8715 61.211C14.0036 61.3356 14.0314 61.3425 14.1148 61.2456C14.2052 61.1417 14.1983 61.0655 14.0245 60.1723C13.9619 59.833 13.948 59.5976 13.9897 59.4868L14.0523 59.3206L14.3165 59.5768C14.4695 59.7222 14.6085 59.93 14.6294 60.0477C14.6502 60.1585 14.7337 60.3454 14.8102 60.4493C14.9145 60.5947 14.9701 60.837 15.0257 61.3979C15.0674 61.8064 15.13 62.2427 15.1648 62.3604C15.1995 62.4781 15.2273 62.762 15.2273 62.9974C15.2273 63.3852 15.2134 63.4267 15.0883 63.4267C15.0118 63.4267 14.9284 63.4683 14.9075 63.5237C14.8519 63.6622 15.0674 64.0915 15.3316 64.3684C15.728 64.7839 15.8392 64.6316 15.5402 64.0776C15.2899 63.6137 15.3108 63.496 15.6167 63.496C15.867 63.496 15.8531 63.4821 16.618 64.3338C16.9726 64.7285 17.1395 64.9847 17.2577 65.2894C17.3272 65.4694 17.362 65.6148 17.3272 65.6287C17.0491 65.7256 16.9309 65.8433 16.91 66.0234C16.8891 66.2103 16.9448 66.2726 17.362 66.5842C17.6192 66.7781 17.9738 67.0066 18.1477 67.0897C18.7317 67.3874 19.0794 67.5813 19.1141 67.6436C19.142 67.6783 19.3505 67.7267 19.5939 67.7475C20.3379 67.8098 20.5117 67.9899 20.6786 68.8554C20.7481 69.1947 20.9289 69.8317 21.0749 70.261C21.2627 70.7734 21.3461 71.1335 21.3322 71.2997L21.3113 71.5628L20.9845 71.5559C20.7968 71.5559 20.6508 71.5697 20.6508 71.5905C20.6577 71.6667 20.8385 71.8744 20.9011 71.8744C20.9706 71.8744 21.4852 72.4214 21.4852 72.4976C21.4852 72.5253 21.5477 72.6153 21.6242 72.7053C21.7007 72.7953 21.7633 72.9269 21.7633 72.9961C21.7633 73.1069 21.7216 73.1208 21.4852 73.1C21.3322 73.0862 21.1653 73.0377 21.1236 72.9961C21.0332 72.9061 20.8594 72.8853 20.8594 72.9615C20.8594 72.9892 20.9359 73.1208 21.0262 73.2523C21.1166 73.3908 21.3322 73.7509 21.513 74.0625C21.6868 74.3741 21.8954 74.6787 21.9719 74.748C22.0484 74.8172 22.1109 74.9072 22.1109 74.9488C22.1179 75.0804 22.9244 75.842 23.0079 75.7936C23.0496 75.7659 23.0844 75.5928 23.0844 75.3989C23.0844 75.2119 23.1122 75.0596 23.1539 75.0596C23.1887 75.0596 23.2999 75.1427 23.3973 75.2396C23.4946 75.3366 23.6267 75.4058 23.6962 75.392C23.7588 75.3781 23.9118 75.1842 24.0369 74.9626C24.1552 74.7341 24.3151 74.5264 24.3916 74.4987C24.5237 74.4502 25.0799 74.0833 25.4415 73.7994C25.5319 73.7301 25.657 73.6747 25.7127 73.6747C25.8378 73.6747 26.9642 72.9892 27.3605 72.6707C27.743 72.3591 28.028 72.2275 28.487 72.1444C28.8972 72.0683 29.4812 71.8121 29.7246 71.5974C29.8011 71.5351 30.6285 71.085 31.5672 70.6003C32.5059 70.1156 33.3889 69.624 33.528 69.5132C33.667 69.4024 33.8339 69.3124 33.8895 69.3124C33.9452 69.3124 34.0077 69.2847 34.0286 69.2501C34.0495 69.2224 34.2094 69.1531 34.3832 69.1047C34.8143 68.987 34.9742 68.7654 34.9742 68.3084C34.9742 67.8998 34.9603 67.8583 34.3206 65.8156C34.0703 65.0124 33.82 64.1607 33.7574 63.9184C33.6948 63.6691 33.5975 63.406 33.5419 63.3298C33.4237 63.1636 33.4167 62.9974 33.521 62.6443C33.6323 62.2288 33.7991 62.1111 34.2441 62.1111C34.6127 62.1111 34.6544 62.0903 34.9812 61.7857C35.3427 61.4464 35.607 61.3633 36.3092 61.3564L36.6291 61.3494L37.0184 61.9588C37.227 62.2911 37.5608 62.7343 37.7555 62.942C37.9502 63.1498 38.124 63.399 38.1518 63.496C38.1727 63.5929 38.2144 63.6829 38.2352 63.7037C38.4021 63.8422 38.6733 64.2992 38.708 64.4931C38.7915 64.9986 38.416 65.5871 37.818 65.8849C37.6373 65.9818 37.4704 66.0857 37.4426 66.1272C37.4217 66.1618 37.3452 66.1965 37.2827 66.1965C37.1227 66.1965 36.6499 66.7643 36.5665 67.0482C36.49 67.3113 36.483 67.7891 36.5595 67.8998C36.6221 68.0037 36.8516 68.0314 37.0045 67.9691C37.0671 67.9414 37.2062 67.9275 37.3105 67.9414C37.4704 67.9552 37.5191 68.0106 37.5816 68.2114C37.6164 68.3499 37.6859 68.5023 37.7277 68.5577C37.7694 68.613 37.832 68.7308 37.8598 68.8277C37.8876 68.9246 38.0336 69.2293 38.1796 69.5063C38.3326 69.7902 38.4508 70.0879 38.4508 70.1779C38.4508 70.261 38.4925 70.3718 38.5481 70.4134C38.6037 70.4549 38.6663 70.7042 38.6941 70.9881C38.7428 71.5282 38.8958 71.8813 39.1739 72.1444C39.3269 72.2899 39.3895 72.3037 39.6815 72.2622C39.8623 72.2414 40.1265 72.1583 40.2655 72.0821C40.4116 72.0129 40.7245 71.9159 40.9678 71.8744C41.2112 71.8329 41.7396 71.7221 42.1498 71.6251C42.8799 71.452 42.9425 71.4451 44.8616 71.4797C46.8154 71.5143 46.8362 71.5143 47.7888 71.7498C48.3173 71.8813 48.7762 72.0267 48.804 72.0752C48.8805 72.1929 49.7148 72.4283 49.8956 72.3868C50.0973 72.3314 50.3198 71.6528 50.5145 70.4411C50.584 70.0256 50.6744 69.7625 50.8482 69.4717C50.9803 69.2501 51.1472 68.8969 51.2167 68.6892C51.3627 68.2461 51.5435 67.9552 51.7452 67.8514C51.8564 67.7891 51.9259 67.8029 52.0789 67.9137C52.2041 68.0037 52.3292 68.0453 52.4266 68.0176C52.5795 67.976 52.5795 67.9483 52.5448 67.4705C52.5239 67.1936 52.4752 66.9097 52.4335 66.8335C52.3223 66.6188 51.5087 66.0026 51.0916 65.8225C50.723 65.6564 50.5005 65.4071 50.3476 64.9986C50.2363 64.7216 50.2572 64.4308 50.3754 64.3269C50.438 64.2784 50.6535 63.9807 50.8621 63.676C51.0637 63.3644 51.3905 62.8866 51.5852 62.6097C51.7799 62.3327 51.9398 62.0834 51.9398 62.0557C51.9398 61.9796 52.4335 61.5225 52.6143 61.4256C52.7047 61.3771 52.9272 61.3702 53.1914 61.3979C53.5877 61.4325 53.6503 61.4672 53.9632 61.7649C54.297 62.0834 54.3248 62.0973 54.7906 62.125C55.4581 62.1596 55.5207 62.2358 55.5207 62.9628C55.5207 63.4752 55.472 63.6691 55.0479 64.9847C54.7906 65.781 54.4708 66.7781 54.3387 67.2005C54.1092 67.9483 53.991 68.7308 54.0884 68.89C54.1162 68.9316 54.3387 69.0216 54.589 69.0839C54.8323 69.1462 55.1313 69.2709 55.2565 69.3609C55.3747 69.4509 55.7571 69.6725 56.0978 69.8525C56.4385 70.0325 57.4189 70.5588 58.2741 71.0158C60.1376 72.0267 60.2002 72.0544 60.7634 72.1583C61.0137 72.2068 61.2779 72.3037 61.3891 72.3937C61.709 72.6638 63.0162 73.5155 63.4125 73.7093C63.6211 73.8132 63.9201 74.0071 64.08 74.1317C64.233 74.2633 64.4624 74.3879 64.5806 74.4087C64.824 74.4572 65.0812 74.7895 65.0812 75.0527C65.0812 75.3158 65.5958 75.4404 65.6584 75.1911C65.6862 75.1011 65.7418 75.0596 65.8252 75.0734C65.9295 75.0942 65.9434 75.1565 65.9295 75.4127C65.9087 75.6966 65.9226 75.7382 66.0616 75.7728C66.1729 75.8005 66.2841 75.7382 66.5345 75.482C67.0768 74.9211 67.7443 74.0486 67.9807 73.5709C68.078 73.3839 68.2171 73.1554 68.2936 73.0723C68.3701 72.9892 68.4118 72.8923 68.384 72.8507C68.3144 72.733 68.0294 72.7607 67.9251 72.8923C67.8069 73.0308 67.3897 73.2108 67.3062 73.1554C67.188 73.0862 67.2298 72.9754 67.4662 72.7399C67.5844 72.6153 67.8764 72.3037 68.1059 72.0475C68.3353 71.7982 68.7594 71.362 69.0445 71.092C70.0597 70.1225 70.7133 69.4163 70.7133 69.2847C70.7133 69.1393 70.4421 69.3609 69.5312 70.261C67.9251 71.8536 67.8277 71.909 67.7443 71.2789C67.7234 71.0781 67.7652 70.8704 67.9251 70.4826C68.1823 69.8525 68.3353 69.2709 68.3909 68.7585C68.4257 68.4538 68.4744 68.3361 68.6551 68.1699C68.7734 68.0522 68.9263 67.886 68.9889 67.8029C69.0932 67.6506 69.121 67.6436 69.3366 67.7198C69.5591 67.8029 69.6147 67.7891 70.2752 67.4705C70.6576 67.2836 70.9914 67.0828 71.0123 67.0135C71.0262 66.9512 71.2209 66.8127 71.4364 66.7089C72.2082 66.3349 72.4724 65.9195 72.0274 65.7672C71.8258 65.6979 71.8119 65.6771 71.8536 65.4417C71.937 64.9016 72.2847 64.3684 72.834 63.9253C73.2025 63.6206 73.4111 63.496 73.5501 63.496C73.6614 63.496 73.7657 63.5167 73.7935 63.5375C73.8352 63.5791 73.571 64.0707 73.4806 64.1053C73.418 64.133 73.4041 64.6039 73.4598 64.6039C73.5571 64.6039 73.9117 64.2923 73.9117 64.2092C73.9117 64.1607 73.9395 64.1192 73.9812 64.1192C74.0786 64.1192 74.2594 63.7383 74.2594 63.5306C74.2594 63.406 74.2107 63.3367 74.0786 63.2813L73.8909 63.2121L73.9326 62.3673C73.9743 61.391 74.1064 60.837 74.3984 60.4147C74.5166 60.2485 74.607 60.0684 74.607 60.013C74.607 59.9161 74.8226 59.6876 74.913 59.6876C74.9408 59.6876 74.9547 60.013 74.9477 60.4147C74.9199 61.1556 74.9755 61.3425 75.1841 61.2594C75.3162 61.211 75.5109 60.8232 75.5109 60.6224C75.5109 60.5324 75.5874 60.2069 75.6778 59.8884C75.8934 59.1337 75.9212 58.9259 75.9629 57.8734C75.9768 57.3818 76.0255 56.9248 76.0672 56.8556C76.1019 56.7794 76.1367 56.6686 76.1367 56.6063C76.1367 56.4747 76.4009 56.2324 76.54 56.2254C76.6095 56.2254 76.6304 56.3085 76.6095 56.5163C76.5887 56.8071 76.6026 56.8209 76.832 56.7863C76.8737 56.7863 76.9016 56.724 76.9016 56.6548C76.9016 56.5855 76.9294 56.5024 76.9641 56.4609C77.1936 56.2185 78.0141 53.7742 78.0141 53.3311C78.0141 53.0818 77.9862 53.0264 77.7985 52.9295C77.6247 52.8464 77.5899 52.791 77.6316 52.6733C77.6594 52.5902 77.6942 52.4171 77.7151 52.2855L77.7568 52.0501L77.2075 52.0916C76.7277 52.1263 76.6026 52.1124 76.2062 51.9601C75.9559 51.8701 75.6013 51.7108 75.4205 51.6139C75.2328 51.5169 74.5375 51.2538 73.87 51.0391C72.8201 50.6929 72.6184 50.6029 72.3403 50.3536C72.1456 50.1805 71.6728 49.9035 71.1305 49.6543C69.9762 49.1142 66.152 47.5977 65.7696 47.5216C65.4011 47.4523 64.7475 47.9301 64.4346 48.4979C64.2677 48.8095 63.4542 49.6335 63.1274 49.8205C63.0648 49.8551 62.9327 49.9451 62.8284 50.0213C62.5225 50.2359 62.4391 50.139 62.4391 49.5296C62.4391 49.128 62.4808 48.9064 62.5851 48.6779C62.8284 48.1655 62.8562 47.9924 62.9188 46.9469C63.0023 45.6035 63.2943 44.6341 64.1495 42.7715C64.4485 42.1345 64.4694 42.0375 64.532 41.2482C64.5598 40.7842 64.5945 39.434 64.5945 38.2499V36.0895L64.8379 35.8749C65.1091 35.6395 65.4984 35.4248 65.7905 35.3556C66.0755 35.2863 66.312 35.037 66.3884 34.7047C66.451 34.4346 66.4441 34.4069 66.3467 34.4485C66.2772 34.4762 66.1381 34.5108 66.0199 34.5316C65.6375 34.5939 65.4359 34.7047 65.3594 34.8847C65.1786 35.3209 65.0048 35.591 64.8031 35.7295L64.5945 35.8749L64.6015 34.587L64.6084 33.299L64.7823 33.2298C64.8727 33.1952 65.0256 33.1675 65.123 33.1675C65.2134 33.1675 65.2898 33.1329 65.2898 33.0982C65.2898 33.0498 65.1647 33.0428 64.9422 33.0705C64.7058 33.1052 64.5945 33.0913 64.5945 33.0359C64.5945 32.9944 64.6571 32.9597 64.7405 32.9597C64.824 32.9597 64.9005 32.9043 64.9213 32.8351C64.9561 32.6897 66.1173 32.0873 66.4858 32.018C66.6318 31.9973 66.7848 31.928 66.8265 31.8726C66.903 31.7895 66.8821 31.7826 66.7083 31.8242C66.597 31.8449 66.3328 31.928 66.1242 32.0042C65.5123 32.2188 65.3802 32.2327 65.2968 32.0734C65.1995 31.8865 65.2551 31.748 65.4845 31.6441L65.6723 31.561L65.4984 31.4918C65.2829 31.4087 65.2759 31.4087 65.3316 31.2702C65.3941 31.104 65.7279 30.9517 66.013 30.9517C66.305 30.9517 66.4093 30.834 66.1451 30.7994C65.8948 30.7717 65.8739 30.6609 66.1034 30.5155L66.298 30.3908L65.9852 30.4254C65.8113 30.4462 65.422 30.4808 65.116 30.5016L64.5598 30.5432L64.7684 30.3701C64.8866 30.2662 65.3385 30.0515 65.7766 29.8784L66.5762 29.5668L66.5901 29.2552C66.597 28.9783 66.5831 28.9436 66.451 28.9436C66.3676 28.9436 66.2355 28.9229 66.152 28.9021C66.0269 28.8675 66.013 28.8882 66.0408 29.0683C66.0547 29.1929 66.0269 29.3106 65.9504 29.3799C65.8113 29.5253 65.4637 29.5391 65.5193 29.4006C65.561 29.2968 65.3037 29.1514 65.0743 29.1514C64.817 29.1514 64.5945 28.9436 64.5945 28.7013C64.5945 28.4797 64.6015 28.4728 65.269 28.2443C65.6445 28.1127 65.8948 28.0019 65.8322 27.9881C65.7696 27.9742 65.6514 28.0019 65.5749 28.0366C65.4984 28.0781 65.2968 28.1127 65.123 28.1127C64.7614 28.1127 64.6988 27.995 64.963 27.815C65.1091 27.7111 65.1021 27.7111 64.8309 27.7457L64.5459 27.7804L64.4972 26.9702C64.4485 26.257 64.4555 26.1462 64.5667 26.0285C64.678 25.9108 64.678 25.8969 64.5737 25.8969C64.5041 25.8969 64.4555 25.8415 64.4555 25.7585C64.4555 25.6823 64.4277 25.62 64.3859 25.62C64.2747 25.62 64.3025 25.3984 64.4346 25.2599C64.5389 25.1422 64.5389 25.1353 64.4346 25.1353C64.3651 25.1353 64.3164 25.0868 64.3164 25.0314C64.3164 24.976 64.2886 24.8721 64.2469 24.8029C64.1704 24.6644 63.8297 23.6327 63.8297 23.5219C63.8297 23.3973 63.4751 22.9818 63.4055 23.0234C63.3708 23.051 63.343 23.2588 63.343 23.5011C63.343 23.8543 63.3082 23.9858 63.1552 24.2213C62.9536 24.5259 62.6963 24.6575 62.5573 24.519C62.5016 24.4636 62.5573 24.3597 62.7867 24.1312C63.0857 23.8266 63.0996 23.7227 62.8145 23.9166C62.592 24.0758 62.3417 24.0828 62.3139 23.9374C62.2861 23.785 62.4808 23.5427 62.6407 23.5427C62.7728 23.5358 63.1691 23.2103 63.1066 23.148C63.0857 23.1272 62.9258 23.1826 62.7589 23.2726C62.5016 23.4042 62.4112 23.418 62.2513 23.3626C62.1192 23.3142 62.0636 23.2519 62.0705 23.1549C62.0845 23.0372 62.0427 23.0234 61.6325 23.0441C61.2848 23.0649 61.1875 23.051 61.1875 22.9749C61.1875 22.8502 61.4309 22.6217 61.7229 22.4763C61.8411 22.414 61.9662 22.3309 61.9871 22.2894C62.0636 22.1717 61.5143 22.4763 61.3683 22.6356C61.2779 22.7325 61.1527 22.781 60.965 22.781C60.5826 22.781 60.5617 22.6356 60.8816 22.2409C61.2848 21.7354 61.3057 21.6939 61.0623 21.9016C60.8259 22.0886 60.5409 22.137 60.3531 22.0193C60.2697 21.9709 60.2697 21.9362 60.3809 21.8185C60.4991 21.6939 60.4991 21.6731 60.4018 21.6731C60.3392 21.6731 60.2071 21.6039 60.1028 21.5139C59.9429 21.3754 59.929 21.3338 59.9985 21.2092C60.0402 21.1261 60.1862 20.9945 60.3184 20.9114C60.4574 20.8283 60.5548 20.7453 60.5409 20.7245C60.52 20.7106 60.3601 20.7937 60.1793 20.9045C59.9985 21.0222 59.8177 21.0984 59.7899 21.0776C59.6787 21.0153 59.7204 20.7937 59.8734 20.5998C59.9568 20.496 60.0472 20.3159 60.068 20.1982C60.1028 20.032 60.1654 19.9697 60.3323 19.9282C60.527 19.8797 60.7564 19.6928 60.6938 19.6374C60.6799 19.6235 60.4852 19.6789 60.2697 19.7689C59.929 19.9074 59.8316 19.9213 59.6091 19.852C59.2198 19.7412 59.1641 19.6789 59.2128 19.4158C59.2545 19.1734 59.2337 19.1527 58.9973 19.2496C58.886 19.2911 58.8165 19.2634 58.6774 19.0973L58.5036 18.8895L58.1003 19.0834L57.697 19.2773L57.5719 19.118C57.4884 19.0072 57.3841 18.9518 57.252 18.9588C56.9878 18.9657 56.0422 19.395 55.8753 19.5889C55.7988 19.6651 55.6945 19.7343 55.6389 19.7343C55.5763 19.7343 55.472 19.7897 55.4025 19.852C55.3052 19.9351 55.1105 19.9767 54.7072 19.9974L54.1509 20.0182L54.1927 19.6166C54.2274 19.3742 54.3039 19.1319 54.3943 19.0072C54.5403 18.8134 54.5473 18.7233 54.5473 17.6916C54.5403 16.9784 54.5125 16.5353 54.4569 16.4452C54.3943 16.3345 54.3804 16.4522 54.3734 17.0477C54.3734 17.4977 54.3456 17.7955 54.3039 17.7955C54.2691 17.7955 54.2344 17.8509 54.2344 17.9201C54.2344 18.1002 53.9354 18.3633 53.7963 18.3079C53.7337 18.2871 53.6712 18.2179 53.6573 18.1556C53.6434 18.0863 53.5947 18.2525 53.553 18.5087C53.4556 19.0072 53.3444 19.3188 53.247 19.3188C53.2192 19.3188 53.1914 19.2704 53.1914 19.2011C53.1914 18.9865 53.108 19.1734 53.0245 19.575C52.9341 20.0528 52.7951 20.1221 52.5726 19.8105C52.4405 19.6235 52.4196 19.4989 52.4127 18.7164C52.3987 18.0517 52.4266 17.7401 52.517 17.4562C52.6282 17.1031 52.6838 16.1267 52.5934 16.2237C52.5656 16.2444 52.503 16.5491 52.4544 16.8953C52.4057 17.2415 52.3223 17.5878 52.2736 17.6778C52.2319 17.7609 52.1762 17.9824 52.1623 18.1763C52.1206 18.751 52.0233 19.0003 51.7312 19.2842C51.3836 19.6166 51.3558 19.5889 51.2793 18.8134C51.2098 18.1556 51.2098 17.8024 51.2654 17.4147C51.2862 17.2623 51.3002 17.0823 51.3071 17.013C51.3141 16.9438 51.3419 16.9092 51.3836 16.9299C51.4601 16.9784 51.5644 16.6391 51.4948 16.5699C51.467 16.5422 51.4045 16.5907 51.3419 16.6737C51.2862 16.7568 51.1889 16.8261 51.1333 16.8261C51.022 16.8261 51.0012 16.5768 51.1055 16.5145C51.2376 16.4314 51.175 16.0506 50.9942 15.8359C50.8343 15.649 50.8204 15.5866 50.8621 15.275C50.9108 14.8665 51.1959 14.0633 51.4114 13.7101C51.4879 13.5786 51.5922 13.3709 51.6339 13.2601C52.058 12.1452 52.1484 11.8752 52.1345 11.7852C52.1206 11.7229 52.0163 11.9583 51.9051 12.2976ZM46.2035 22.0193C47.5663 22.1786 48.7345 22.511 49.9791 23.0995C50.5284 23.3557 50.7648 23.5011 50.7439 23.5704C50.73 23.6258 50.0069 24.9206 49.1238 26.444L47.5246 29.2206L47.0379 29.3591C46.7737 29.4422 46.3912 29.5807 46.1966 29.6707C46.0019 29.7607 45.6334 29.8577 45.3761 29.8853C44.7712 29.9477 44.354 29.83 43.6309 29.3937C43.4779 29.3037 43.1094 29.1375 42.8104 29.0337L42.268 28.8398L41.83 28.0781C41.5866 27.6626 41.3224 27.2056 41.2459 27.0741C41.1695 26.9425 40.6827 26.0977 40.1612 25.2045C39.6398 24.3113 39.2156 23.5565 39.2156 23.5288C39.2156 23.4319 40.641 22.7879 41.385 22.5456C42.0873 22.3171 43.3041 22.0539 43.909 21.9986C44.5209 21.9432 45.6125 21.957 46.2035 22.0193ZM45.7168 31.0279C45.9115 31.0763 46.1131 31.2217 46.3704 31.4918C46.8849 32.0388 47.4203 32.8213 47.4203 33.0428C47.4203 33.1121 47.5177 33.2783 47.6428 33.4167L47.8653 33.666L47.7749 34.3654C47.6915 35.0578 47.5802 35.3556 47.3786 35.4317C47.323 35.4525 46.8988 35.2863 46.426 35.0647C45.6055 34.6701 45.5569 34.6562 45.0215 34.6631C44.5278 34.6631 44.4027 34.6908 43.9159 34.9193C43.3666 35.1755 43.0816 35.2378 43.0051 35.1063C42.9842 35.0647 42.8799 35.037 42.7756 35.037C42.4836 35.037 42.3098 34.9678 42.2194 34.8293C42.122 34.6701 41.9273 33.7699 41.9273 33.4583C41.9273 32.9805 42.2055 32.5858 42.727 32.3227C42.8799 32.2465 43.165 32.025 43.3527 31.8242C44.0967 31.0625 44.4791 30.8617 45.0562 30.9101C45.2648 30.9309 45.5638 30.9863 45.7168 31.0279ZM49.5827 37.9868C49.7079 38.0976 49.7983 38.153 50.4727 38.52C50.6674 38.6238 50.8273 38.7346 50.8273 38.7623C50.8273 38.9285 52.0928 39.4132 53.5599 39.8079L54.5195 40.0641L54.1787 40.5072C53.991 40.7565 53.7129 41.0889 53.5669 41.2551L53.2957 41.5459L52.1971 41.449C51.0012 41.3382 50.876 41.2828 50.584 40.8327C50.5075 40.7081 50.3337 40.5003 50.2016 40.3618C50.0695 40.2234 49.8122 39.8148 49.6314 39.4617C49.3324 38.8731 49.2977 38.7623 49.2977 38.3399C49.2977 37.8483 49.3533 37.7791 49.5827 37.9868ZM39.2226 38.9839C39.3269 39.0462 39.3547 39.1362 39.3547 39.4686C39.3547 39.8217 39.3269 39.9118 39.153 40.1056C38.6524 40.6665 38.263 41.0473 38.1031 41.1304C37.832 41.2758 37.2618 41.4074 36.9072 41.4074C36.6012 41.4074 36.5665 41.3866 36.2258 41.0058C35.8642 40.6042 35.148 39.614 35.1898 39.5794C35.2037 39.5725 35.5166 39.524 35.8781 39.4755C36.2397 39.4271 36.7612 39.3093 37.0323 39.2193C37.3035 39.1293 37.5955 39.0531 37.6929 39.0531C37.7833 39.0531 37.9084 39.0185 37.9641 38.9839C38.1031 38.8939 39.0487 38.8939 39.2226 38.9839ZM28.6955 40.0641C28.8207 40.161 28.925 40.2857 28.925 40.3411C28.925 40.4311 28.9876 40.4588 29.3213 40.4657C29.4117 40.4726 29.4812 40.5003 29.4812 40.5419C29.4812 40.805 29.37 41.075 29.1684 41.2551C28.9528 41.4628 28.9389 41.4628 28.8346 41.352C28.6538 41.1581 28.4591 40.6388 28.4035 40.2441C28.3757 40.0502 28.3757 39.8841 28.4105 39.8841C28.4383 39.8841 28.5634 39.9602 28.6955 40.0641ZM61.9941 41.9198C62.0497 42.0652 61.9037 42.5291 61.7298 42.7923C61.6395 42.9169 61.4448 43.09 61.2918 43.18C61.1388 43.2701 60.958 43.3739 60.8955 43.4155C60.7077 43.5263 60.7425 43.4293 60.9789 43.1593C61.1041 43.0208 61.1875 42.8477 61.1875 42.73C61.1875 42.5153 61.0415 42.4114 60.9163 42.5361C60.7495 42.7023 60.7634 42.5015 60.9302 42.3214C61.0345 42.2106 61.0971 42.1068 61.0693 42.0791C61.0484 42.0514 61.1041 42.0306 61.1945 42.0237C61.2848 42.0237 61.4726 41.9752 61.6047 41.9267C61.9245 41.8021 61.9523 41.8021 61.9941 41.9198ZM42.6087 48.1586C42.5114 48.3663 42.5948 48.4841 42.72 48.311C42.7687 48.2486 42.8591 48.1932 42.9216 48.1932C43.1163 48.1932 43.1302 48.3456 42.9564 48.4979C42.866 48.5741 42.8312 48.6156 42.8799 48.581C42.9355 48.5464 42.9703 48.5533 42.9703 48.5948C42.9703 48.6364 42.9425 48.6849 42.9077 48.7056C42.873 48.7333 42.7965 48.8926 42.7339 49.0726C42.6713 49.2527 42.5531 49.4673 42.4697 49.5573C42.3862 49.6473 42.3584 49.7166 42.4071 49.7166C42.4488 49.7166 42.574 49.585 42.6783 49.4188C42.9495 48.9965 43.5196 48.4841 43.5891 48.6018C43.6309 48.671 43.6587 48.671 43.7004 48.6156C43.7352 48.5602 43.7838 48.5741 43.8742 48.6779C44.0341 48.8649 44.2636 48.851 44.4583 48.6433C44.5695 48.5256 44.6947 48.4702 44.8477 48.4702C45.0771 48.4702 45.0771 48.4702 44.945 48.6156L44.8129 48.768L45.0423 48.7333C45.1605 48.7195 45.2648 48.7264 45.2648 48.7541C45.2648 48.7818 45.3135 48.8164 45.3622 48.8303C45.4248 48.8441 45.2787 49.0034 45.0006 49.2319C44.4305 49.7027 44.3887 49.7166 44.5348 49.4396C44.5973 49.3219 44.6321 49.2042 44.6182 49.1903C44.6043 49.1696 44.5278 49.2804 44.4513 49.4396L44.3123 49.7166H44.4513C44.5278 49.7166 44.7781 49.5435 45.0006 49.3288C45.3691 48.9757 45.4248 48.948 45.6264 48.9965C45.8698 49.0449 46.0227 49.1973 46.0297 49.3842C46.0297 49.4465 45.988 49.5089 45.9462 49.5296C45.8976 49.5435 45.9602 49.5573 46.0853 49.5643C46.2035 49.5643 46.3634 49.6196 46.426 49.682C46.5303 49.7928 46.6763 49.7997 47.7958 49.7581L49.0543 49.7097L49.249 49.9035C49.3533 50.0074 49.5549 50.2636 49.687 50.4644C49.8817 50.7691 49.9234 50.9006 49.9234 51.1915C49.9234 51.3923 49.8956 51.5931 49.8609 51.6485C49.7635 51.8008 49.2907 51.9531 48.95 51.9462C47.3647 51.8908 46.6555 51.78 46.6555 51.5792C46.6555 51.5515 46.5373 51.4615 46.3982 51.3784C46.0853 51.1984 45.9184 51.233 45.6055 51.5515C45.4734 51.6831 45.3274 51.7939 45.2857 51.7939C45.237 51.7939 45.1953 51.8424 45.1953 51.9047C45.1953 52.0016 45.1258 52.0155 44.7642 51.9878C44.3748 51.9601 44.2984 51.9254 44.0689 51.7108C43.9229 51.5723 43.7073 51.4477 43.5752 51.42C43.3041 51.3715 42.866 51.5031 42.5601 51.7316C42.3723 51.8701 42.2959 51.8839 41.7257 51.8424C41.232 51.8147 41.086 51.8216 41.0165 51.9047C40.9678 51.967 40.794 52.0016 40.5089 52.0016C40.1543 52.0016 40.0013 51.9601 39.5841 51.7454C39.1739 51.5446 39.0766 51.4615 39.0766 51.33C39.0766 51.143 40.3768 49.2804 40.4741 49.3358C40.5645 49.3981 40.7453 49.2734 40.8427 49.0865C40.8844 48.9965 41.0373 48.858 41.1695 48.7818C41.3085 48.7056 41.5588 48.5602 41.7257 48.4633C42.0595 48.2625 42.5601 48.0063 42.6366 47.9924C42.6644 47.9924 42.6505 48.0617 42.6087 48.1586ZM43.8603 51.8839C43.9785 52.0016 44.0828 52.1609 44.0828 52.237C44.0828 52.3132 44.1593 52.4378 44.2497 52.5209C44.4374 52.6802 44.7573 53.4488 44.8755 54.0097C44.945 54.3143 44.9867 54.3905 45.091 54.3905C45.2162 54.3905 45.2301 54.3351 45.2509 53.6634C45.2648 53.0264 45.2927 52.8602 45.5012 52.3132L45.7377 51.69L46.0784 51.6762C46.3634 51.6554 46.4469 51.6831 46.6207 51.8493C46.7389 51.9531 46.9197 52.2163 47.0309 52.4378C47.3438 53.0472 47.5037 53.1164 47.5941 52.6733C47.6706 52.334 47.8862 52.1401 48.1921 52.1401C48.4285 52.1401 48.4911 52.1816 48.8387 52.5971C49.0543 52.8464 49.2281 53.0818 49.2281 53.1234C49.2281 53.1718 49.2698 53.1649 49.3324 53.1095C49.388 53.061 49.4367 52.9433 49.4367 52.8395C49.4437 52.6317 49.5341 52.4586 49.7913 52.1609C50.0973 51.8008 50.3406 51.7316 50.3406 52.0016C50.3406 52.0639 50.4032 52.1747 50.4797 52.244C50.6048 52.3548 50.6187 52.4586 50.6187 53.3519C50.6187 54.2451 50.6048 54.3559 50.4727 54.5221C50.2711 54.7783 49.8052 54.9929 49.6384 54.9098C49.4298 54.7921 49.2977 54.8337 49.2142 55.0275C48.9987 55.5676 48.9291 55.6577 48.6788 55.6992C48.2547 55.7684 48.06 55.7477 47.8097 55.5953C47.5941 55.4707 47.5316 55.4638 47.3021 55.533C47.1561 55.5815 47.0101 55.6438 46.9753 55.6784C46.878 55.7684 46.0992 55.7546 45.4178 55.6577C44.9798 55.6023 44.8198 55.6023 44.7642 55.6577C44.7086 55.713 44.3748 55.7407 43.8047 55.7407H42.9355L42.6713 55.5261C42.4419 55.3322 42.3932 55.3253 42.3237 55.4153C42.0595 55.7546 40.933 55.6853 40.6688 55.3184C40.5367 55.1314 40.2586 55.0414 40.2586 55.1868C40.2586 55.3114 39.7441 55.6023 39.5216 55.6023C39.2295 55.6023 38.8402 55.2907 38.7428 54.9721C38.7011 54.8337 38.6455 54.252 38.6177 53.6911C38.5759 52.694 38.5759 52.6525 38.7359 52.3825C38.9514 52.0155 39.0627 51.9393 39.3547 51.9393C39.4868 51.9393 39.6467 51.9739 39.7093 52.0224C39.8692 52.1401 40.2377 52.8879 40.2934 53.1995C40.349 53.5457 40.5298 53.518 40.641 53.1441C40.8635 52.4032 41.1903 52.0362 41.5727 52.1124C41.6909 52.1401 41.7883 52.1816 41.7883 52.2163C41.7883 52.244 41.8439 52.3201 41.9065 52.3825C41.976 52.4517 42.0525 52.7079 42.0942 53.0264C42.1498 53.3796 42.2055 53.5665 42.2889 53.6219C42.4558 53.7258 42.4905 53.6634 42.6227 53.061C42.6922 52.7633 42.8034 52.3063 42.873 52.0501L43.0051 51.5723L43.318 51.6208C43.5335 51.6554 43.7004 51.7316 43.8603 51.8839ZM40.9609 55.9554L41.1555 56.1908L40.9887 56.357C40.8357 56.5163 40.794 56.5232 40.4185 56.4609C40.0291 56.3986 40.0152 56.3916 40.0291 56.1908C40.0639 55.6853 40.0987 55.6507 40.4463 55.6923C40.7105 55.72 40.8079 55.7754 40.9609 55.9554ZM28.5704 57.0494C28.918 57.2295 28.9876 57.3264 29.0362 57.6934C29.1266 58.3304 28.6608 58.7667 27.7986 58.8567C27.2215 58.919 27.1172 59.009 27.1172 59.4522C27.1172 59.6253 27.0824 59.7568 27.0268 59.7776C26.9781 59.7984 26.8877 59.9438 26.8391 60.11C26.7834 60.2762 26.6374 60.5462 26.5123 60.7055C26.3941 60.8647 26.248 61.0794 26.1924 61.1902C26.1298 61.294 25.9838 61.4948 25.8656 61.6264C25.7474 61.758 25.5945 61.9588 25.5388 62.0765C25.4762 62.1873 25.3372 62.4296 25.219 62.6097C25.0312 62.9074 24.9826 62.942 24.7601 62.942C24.621 62.9351 24.4402 62.8797 24.3568 62.8105C24.2316 62.7066 23.8909 62.2358 23.6059 61.7718C22.2987 59.6599 22.104 59.0644 22.4934 58.4066C22.8132 57.8527 23.6684 57.6657 25.9004 57.6519C26.9573 57.6449 27.0129 57.638 27.0337 57.5064C27.0477 57.4303 27.1867 57.2641 27.3466 57.1464C27.7012 56.8763 28.1532 56.8417 28.5704 57.0494ZM61.5769 57.0841C61.7716 57.1741 61.9941 57.3333 62.0775 57.4372C62.2235 57.6242 62.2513 57.6311 62.8354 57.6172C63.5655 57.6034 65.7557 57.7903 66.013 57.8873C66.1103 57.9219 66.312 58.0812 66.4719 58.2404C66.7361 58.5105 66.75 58.552 66.75 58.9398C66.75 59.1683 66.7013 59.5283 66.6387 59.743C66.5136 60.1585 65.9991 61.1417 65.9017 61.1417C65.8739 61.1417 65.8461 61.1833 65.8461 61.2317C65.8461 61.2871 65.7348 61.4395 65.6027 61.5779C65.4706 61.7164 65.3594 61.8757 65.3594 61.938C65.3594 62.0419 64.7962 62.7828 64.6362 62.8866C64.3859 63.0597 63.8992 62.8382 63.8992 62.5612C63.8992 62.5058 63.8714 62.4573 63.8436 62.4573C63.8088 62.4573 63.7323 62.3465 63.6628 62.2081C63.6002 62.0696 63.4542 61.8549 63.343 61.7372C63.2317 61.6195 62.9814 61.2594 62.7867 60.934C62.592 60.6085 62.3973 60.3108 62.3417 60.2762C62.1609 60.1377 61.8828 59.5076 61.8828 59.2167C61.8828 59.0436 61.556 58.8636 61.2431 58.8498C60.7077 58.8428 60.2141 58.3512 60.2141 57.8457C60.2141 57.5134 60.3114 57.2225 60.4713 57.0425C60.6312 56.8625 61.1458 56.8833 61.5769 57.0841ZM50.9664 59.2237C50.9664 59.2791 50.8343 59.4453 50.6744 59.5976C50.2363 60.0061 49.84 60.4562 49.7148 60.6709C49.6175 60.844 49.5202 60.9271 48.8805 61.3841C48.7414 61.481 48.1504 61.7164 47.5594 61.9172C46.5164 62.2634 46.4538 62.2704 45.5291 62.305C43.2971 62.3742 41.1069 61.9588 40.2238 61.294C39.9248 61.0725 39.8762 60.9963 39.8553 60.7678C39.8414 60.6016 39.8692 60.477 39.9248 60.4424C40.0709 60.3454 40.3907 60.3731 40.6619 60.4908C41.1138 60.6847 41.1973 60.7124 41.3016 60.7124C41.3572 60.7124 41.7327 60.7816 42.1359 60.8717C42.8034 61.024 43.019 61.0378 44.7086 61.0378C46.5442 61.0378 46.5512 61.0378 47.0796 60.844C47.3647 60.7401 47.6915 60.657 47.7958 60.657C47.9835 60.657 49.5688 59.9092 49.7913 59.7153C49.847 59.6599 49.9234 59.6184 49.9582 59.6184C49.993 59.6184 50.0834 59.556 50.1598 59.4868C50.2433 59.4106 50.431 59.3068 50.584 59.2514C50.9525 59.1198 50.9664 59.1198 50.9664 59.2237ZM21.1305 59.7499C21.5616 60.1585 21.958 60.7193 22.1248 61.1625C22.2709 61.5364 22.3056 62.9697 22.1735 63.0459C22.1387 63.0736 21.9719 63.2744 21.812 63.4891C21.5199 63.8976 21.2279 64.1676 20.9498 64.32C20.6369 64.4792 19.6078 64.3754 19.6078 64.1815C19.6078 64.1469 19.5522 64.0707 19.4757 64.0015C19.4062 63.9322 19.3297 63.8006 19.3088 63.7037C19.281 63.6068 19.142 63.3367 18.9959 63.1151C18.7109 62.6651 17.8 60.8024 17.8 60.657C17.8 60.4631 18.092 60.1169 18.4049 59.9438C18.5927 59.8469 18.9403 59.7222 19.1906 59.6599C19.4409 59.6045 19.7191 59.5283 19.8164 59.4868C19.9137 59.4522 20.1641 59.4176 20.3796 59.4176C20.7551 59.4106 20.7898 59.4245 21.1305 59.7499ZM69.9137 59.6461C70.4143 59.7776 70.9219 60.0754 71.047 60.3108C71.0957 60.4077 71.1235 60.6085 71.1096 60.7609C71.0748 61.0932 70.0875 63.1013 69.6147 63.8076L69.2879 64.2923L68.7664 64.313L68.2519 64.3338L67.932 64.0015C67.5774 63.6345 67.1672 63.2882 67.0837 63.2882C67.0559 63.2882 67.0281 63.2467 67.0281 63.1913C67.0281 63.1428 66.9795 63.0528 66.9169 63.0043C66.8195 62.9213 66.8056 62.8035 66.8473 62.1457C66.8821 61.4602 66.9099 61.3356 67.1324 60.8994C67.2854 60.5947 67.5496 60.2415 67.8486 59.9369L68.3144 59.4591L68.9055 59.5006C69.2323 59.5214 69.6842 59.5907 69.9137 59.6461Z" fill="#7D7D7D" fill-opacity="0.47"/>
<path d="M49.2977 53.6634C49.2977 53.6981 49.3324 53.7327 49.3672 53.7327C49.4089 53.7327 49.4367 53.6981 49.4367 53.6634C49.4367 53.6219 49.4089 53.5942 49.3672 53.5942C49.3324 53.5942 49.2977 53.6219 49.2977 53.6634Z" fill="#7D7D7D" fill-opacity="0.47"/>
<path d="M40.9817 14.6726C40.9817 15.0535 41.0026 15.3512 41.0373 15.3304C41.0652 15.3097 41.093 15.0812 41.093 14.818C41.093 14.5549 41.1277 14.3195 41.1625 14.2987C41.239 14.2502 41.1277 13.9871 41.0373 13.9871C41.0095 13.9871 40.9887 14.2987 40.9817 14.6726Z" fill="#7D7D7D" fill-opacity="0.47"/>
<path d="M36.483 15.9744C36.4066 16.0436 36.4274 16.5491 36.5039 16.5491C36.5456 16.5491 36.5734 16.4106 36.5734 16.2375C36.5734 15.919 36.5595 15.8913 36.483 15.9744Z" fill="#7D7D7D" fill-opacity="0.47"/>
<path d="M65.6792 25.2668C65.6166 25.3361 65.3733 25.4953 65.1438 25.62C64.9144 25.7377 64.7406 25.8554 64.7545 25.8692C64.7962 25.9177 65.4081 25.6407 65.4567 25.5576C65.4845 25.5161 65.5819 25.4815 65.6723 25.4815C65.8391 25.4815 66.0269 25.2668 65.9365 25.1768C65.867 25.1076 65.8044 25.1283 65.6792 25.2668Z" fill="#7D7D7D" fill-opacity="0.47"/>
<path d="M66.5066 30.8132L66.3676 30.8755H66.5066C66.5831 30.8755 66.6944 30.8478 66.75 30.8132C66.8404 30.7509 66.8404 30.744 66.75 30.7509C66.6944 30.7509 66.5831 30.7786 66.5066 30.8132Z" fill="#7D7D7D" fill-opacity="0.47"/>
<path d="M66.2633 31.4087L65.9504 31.5056L66.2285 31.4641C66.3815 31.4433 66.5553 31.3948 66.6109 31.3602C66.757 31.2771 66.6318 31.291 66.2633 31.4087Z" fill="#7D7D7D" fill-opacity="0.47"/>
<path d="M16.2842 66.2034C16.3051 66.418 16.4928 66.6188 16.5902 66.5288C16.6736 66.4457 16.5484 66.1341 16.4024 66.058C16.2703 65.9818 16.2634 65.9957 16.2842 66.2034Z" fill="#7D7D7D" fill-opacity="0.47"/>
<path d="M17.8 68.5092C17.8 68.53 17.8278 68.62 17.8626 68.7169C17.9321 68.8969 19.0863 70.2264 19.2184 70.2749C19.2602 70.2887 19.4062 70.4064 19.5383 70.538C19.7747 70.7596 19.8859 70.815 19.8859 70.7111C19.8859 70.6211 18.8221 69.3886 18.1337 68.6754C17.9738 68.5023 17.8 68.4192 17.8 68.5092Z" fill="#7D7D7D" fill-opacity="0.47"/>
<path d="M43.0259 74.7064C42.5809 74.748 42.4141 74.8034 42.5045 74.8934C42.6157 75.0111 43.2832 75.0527 44.8546 75.0596C46.2939 75.0596 46.5859 75.0457 46.6555 74.9557C46.725 74.8726 46.725 74.8311 46.6555 74.748C46.5859 74.658 46.3217 74.6441 45.0284 74.658C44.1871 74.658 43.2832 74.6857 43.0259 74.7064Z" fill="#7D7D7D" fill-opacity="0.47"/>
</svg>
