<svg width="462" height="49" viewBox="0 0 462 49" fill="none" xmlns="http://www.w3.org/2000/svg">
<rect x="1.5" y="1.5" width="459" height="46" stroke="#E2E2E2" stroke-width="3"/>
<path d="M35.9317 33.753V35H17.4297V33.753H21.3737C20.3104 33.2117 19.3437 32.5157 18.4737 31.665L21.1707 28.359C23.3554 30.273 25.3757 31.23 27.2317 31.23C28.0631 31.23 28.7107 31.056 29.1747 30.708C29.6581 30.3407 29.8997 29.8573 29.8997 29.258C29.8997 28.6393 29.6484 28.156 29.1457 27.808C28.6431 27.4407 27.6474 27.0733 26.1587 26.706C23.8001 26.1453 22.0697 25.4203 20.9677 24.531C19.8851 23.6223 19.3437 22.211 19.3437 20.297C19.3437 18.3637 20.0301 16.875 21.4027 15.831C22.7947 14.787 24.5251 14.265 26.5937 14.265C27.9471 14.265 29.3004 14.497 30.6537 14.961C32.0071 15.425 33.1864 16.0823 34.1917 16.933L31.9007 20.239C30.1414 18.905 28.3241 18.238 26.4487 18.238C25.6947 18.238 25.0954 18.4217 24.6507 18.789C24.2254 19.137 24.0127 19.6107 24.0127 20.21C24.0127 20.79 24.2737 21.254 24.7957 21.602C25.3371 21.95 26.5647 22.3657 28.4787 22.849C30.4121 23.313 31.9104 24.0187 32.9737 24.966C34.0371 25.9133 34.5687 27.228 34.5687 28.91C34.5687 30.998 33.7857 32.6123 32.2197 33.753H35.9317ZM60.0219 33.753V35H38.2429V33.753H44.0139C41.6359 32.1677 40.4469 29.606 40.4469 26.068V14.729H44.9709V25.923C44.9709 27.547 45.3479 28.8327 46.1019 29.78C46.8559 30.708 47.8709 31.172 49.1469 31.172C50.4229 31.172 51.4282 30.708 52.1629 29.78C52.9169 28.8327 53.2939 27.547 53.2939 25.923V14.729H57.8179V26.068C57.8179 29.606 56.6386 32.1677 54.2799 33.753H60.0219ZM80.8142 33.753V35H62.0222V33.753H64.8352V14.729H69.3592V30.969H78.0012V33.753H80.8142ZM96.9915 33.753V35H79.3595V33.753H85.9135V18.644H80.1715V14.729H96.1795V18.644H90.4375V33.753H96.9915ZM122.413 33.753V35H114.786L112.901 30.621H104.404L102.519 35H94.8924V33.753H98.2274L106.463 14.729H110.842L119.049 33.753H122.413ZM108.667 20.761L106.115 26.648H111.19L108.667 20.761ZM124.273 33.753V14.729H128.507L138.454 27.779V14.729H142.978V33.753H145.791V35H138.454L128.797 22.298V35H121.46V33.753H124.273ZM155.459 33.753V35H147.803V33.753H155.459ZM160.263 33.753V14.729H174.879V18.76H164.787V22.936H173.864V26.793H164.787V30.998H175.198V33.753H178.011V35H157.45V33.753H160.263ZM181.558 33.753V14.729H185.792L195.739 27.779V14.729H200.263V33.753H203.076V35H195.739L186.082 22.298V35H178.745V33.753H181.558ZM222.72 33.753V35H205.088V33.753H211.642V18.644H205.9V14.729H221.908V18.644H216.166V33.753H222.72ZM227.546 33.753V14.729H242.162V18.76H232.07V22.936H241.147V26.793H232.07V30.998H242.481V33.753H245.294V35H224.733V33.753H227.546ZM248.84 33.753V14.729H256.525C259.677 14.729 261.919 15.2607 263.253 16.324C264.607 17.3873 265.283 19.0983 265.283 21.457C265.283 24.705 263.998 26.8027 261.426 27.75L265.66 33.753H268.386V35H260.991L256.496 28.533H253.364V35H246.027V33.753H248.84ZM256.67 24.618C258.217 24.618 259.271 24.3667 259.831 23.864C260.392 23.3613 260.672 22.5687 260.672 21.486C260.672 20.384 260.382 19.63 259.802 19.224C259.222 18.818 258.207 18.615 256.757 18.615H253.364V24.618H256.67ZM286.972 33.753V35H269.34V33.753H275.894V18.644H270.152V14.729H286.16V18.644H280.418V33.753H286.972ZM312.394 33.753V35H304.767L302.882 30.621H294.385L292.5 35H284.873V33.753H288.208L296.444 14.729H300.823L309.03 33.753H312.394ZM298.648 20.761L296.096 26.648H301.171L298.648 20.761ZM321.271 33.753V35H311.759V33.753H314.253V14.729H318.777V33.753H321.271ZM326.089 33.753V14.729H330.323L340.27 27.779V14.729H344.794V33.753H347.607V35H340.27L330.613 22.298V35H323.276V33.753H326.089ZM370.267 22.24L364.786 33.318H362.089L356.637 22.24V35H349.3V33.753H352.113V14.729H358.232L363.452 25.865L368.701 14.729H374.791V33.753H377.604V35H370.267V22.24ZM382.102 33.753V14.729H396.718V18.76H386.626V22.936H395.703V26.793H386.626V30.998H397.037V33.753H399.85V35H379.289V33.753H382.102ZM403.397 33.753V14.729H407.631L417.578 27.779V14.729H422.102V33.753H424.915V35H417.578L407.921 22.298V35H400.584V33.753H403.397ZM444.559 33.753V35H426.927V33.753H433.481V18.644H427.739V14.729H443.747V18.644H438.005V33.753H444.559Z" fill="#E2E2E2"/>
</svg>
